<?xml version="1.0" encoding="UTF-8"?>
<svg id="Layer_1" xmlns="http://www.w3.org/2000/svg" version="1.1" viewBox="0 0 146.1 146.1">
  <!-- Generator: Adobe Illustrator 30.3.0, SVG Export Plug-In . SVG Version: 2.1.3 Build 182)  -->
  <defs>
    <style>
      .st0 {
        fill: #fff;
      }
    </style>
  </defs>
  <rect width="146.1" height="146.1" rx="31.6" ry="31.6"/>
  <g>
    <path class="st0" d="M92,90.7c-14.5,9.3-33.5,6.6-44.9-6-12.3-13.5-12.3-34.2.2-47.6,6.5-7,15.6-11.3,25.4-11.3h35.6s0,36.3,0,36.3c0,11.6-6.5,22.3-16.2,28.5ZM92.7,61.5v-20.1s-20.9.1-20.9.1c-5.2.2-9.9,2.7-13.4,6.5-6,6.6-6.7,16.4-1.8,23.8s13.7,10.7,22.2,8.1c7.8-2.4,13.8-9.7,13.8-18.3Z"/>
    <path class="st0" d="M41.6,110.6l8.7-12.9c13.9,9.4,32.1,9.3,45.8-.2l8.8,12.8c-18.9,13.1-44.2,13.2-63.4.2Z"/>
  </g>
</svg>
