<?xml version="1.0" encoding="UTF-8"?>
<svg xmlns="http://www.w3.org/2000/svg" version="1.1" viewBox="0 0 168.5 168.5">
  <path fill="#395e38" d="M75.2.5c46.9-5.1,87.8,29.1,92.8,74.6s-28.6,87.8-74.7,92.8C47.5,173,6,139.9.6,94.1S28,5.7,75.2.5ZM79.7,106.1l-27-57.2h-20.1c-1.2,0-2.7.4-3.5.9s-.7,3.1-.5,4.2l34.5,73.4c.8,1.3,1.8,2.6,2.7,3s3.4-1,3.8-1.9l10.1-22.4ZM111.2,128.2l10-21.7-27-57.3h-22.2c-1.2-.1-3,2.7-2.5,4l35.4,75.4c.4.9,2.7,2.3,3.7,2s2.2-1.5,2.6-2.3ZM124.6,49.7c-6.8,2.2-9.7,9.3-7.5,15.4s9.3,9.3,15.1,7.3,9.5-9.3,7.4-15.4-8.6-9.4-15.1-7.3Z"/>
  <path fill="#fff" d="M79.7,106.1l-10.1,22.4c-.4.9-3,2.3-3.8,1.9s-1.9-1.7-2.7-3L28.5,54c-.2-1.2-.2-3.7.5-4.2s2.3-.8,3.5-.8h20.1c0,0,27,57.1,27,57.1Z"/>
  <path fill="#fff" d="M111.2,128.2c-.4.8-1.8,2-2.6,2.3s-3.2-1.1-3.7-2l-35.4-75.4c-.6-1.2,1.3-4.1,2.5-4.1h22.2c0,.1,27,57.5,27,57.5l-10,21.7Z"/>
  <path fill="#fff" d="M124.6,49.7c6.5-2.1,13,1.2,15.1,7.3s-.8,13.2-7.4,15.4-12.9-1-15.1-7.3.7-13.2,7.5-15.4Z"/>
</svg>
